# Blender 4.1.1
# www.blender.org
mtllib cylinder1.mtl
o Cylinder
v -0.500000 0.000000 -1.000000
v 0.500000 0.000000 -1.000000
v -0.500000 -0.707107 -0.707107
v 0.500000 -0.707107 -0.707107
v -0.500000 -1.000000 0.000000
v 0.500000 -1.000000 0.000000
v -0.500000 -0.707107 0.707107
v 0.500000 -0.707107 0.707107
v -0.500000 0.000000 1.000000
v 0.500000 0.000000 1.000000
v -0.500000 0.707107 0.707107
v 0.500000 0.707107 0.707107
v -0.500000 1.000000 0.000000
v 0.500000 1.000000 0.000000
v -0.500000 0.707107 -0.707107
v 0.500000 0.707107 -0.707107
vn -0.0000 -0.3827 -0.9239
vn -0.0000 -0.9239 -0.3827
vn -0.0000 -0.9239 0.3827
vn -0.0000 -0.3827 0.9239
vn -0.0000 0.3827 0.9239
vn -0.0000 0.9239 0.3827
vn -0.0000 0.9239 -0.3827
vn -0.0000 0.3827 -0.9239
vt 0.500000 1.000000
vt 0.375000 0.000000
vt 0.500000 0.000000
vt 0.375000 1.000000
vt 0.250000 0.000000
vt 0.250000 1.000000
vt 0.125000 0.000000
vt 0.125000 1.000000
vt 0.000000 0.000000
vt 1.000000 1.000000
vt 0.875000 0.000000
vt 1.000000 0.000000
vt 0.875000 1.000000
vt 0.750000 0.000000
vt 0.750000 1.000000
vt 0.625000 0.000000
vt 0.625000 1.000000
vt 0.000000 1.000000
s 0
usemtl Material
f 2/1/1 3/2/1 1/3/1
f 4/4/2 5/5/2 3/2/2
f 6/6/3 7/7/3 5/5/3
f 8/8/4 9/9/4 7/7/4
f 10/10/5 11/11/5 9/12/5
f 12/13/6 13/14/6 11/11/6
f 14/15/7 15/16/7 13/14/7
f 16/17/8 1/3/8 15/16/8
f 2/1/1 4/4/1 3/2/1
f 4/4/2 6/6/2 5/5/2
f 6/6/3 8/8/3 7/7/3
f 8/8/4 10/18/4 9/9/4
f 10/10/5 12/13/5 11/11/5
f 12/13/6 14/15/6 13/14/6
f 14/15/7 16/17/7 15/16/7
f 16/17/8 2/1/8 1/3/8
