# Blender 4.1.1
# www.blender.org
mtllib cylinder.mtl
o Cylinder
v 0.000000 -0.500000 -1.000000
v 0.000000 0.500000 -1.000000
v 0.707107 -0.500000 -0.707107
v 0.707107 0.500000 -0.707107
v 1.000000 -0.500000 0.000000
v 1.000000 0.500000 0.000000
v 0.707107 -0.500000 0.707107
v 0.707107 0.500000 0.707107
v 0.000000 -0.500000 1.000000
v 0.000000 0.500000 1.000000
v -0.707107 -0.500000 0.707107
v -0.707107 0.500000 0.707107
v -1.000000 -0.500000 0.000000
v -1.000000 0.500000 0.000000
v -0.707107 -0.500000 -0.707107
v -0.707107 0.500000 -0.707107
vn 0.3827 -0.0000 -0.9239
vn 0.9239 -0.0000 -0.3827
vn 0.9239 -0.0000 0.3827
vn 0.3827 -0.0000 0.9239
vn -0.3827 -0.0000 0.9239
vn -0.9239 -0.0000 0.3827
vn -0.9239 -0.0000 -0.3827
vn -0.3827 -0.0000 -0.9239
vt 1.000000 0.687500
vt 0.875000 0.312500
vt 1.000000 0.312500
vt 0.875000 0.687500
vt 0.750000 0.312500
vt 0.750000 0.687500
vt 0.625000 0.312500
vt 0.625000 0.687500
vt 0.500000 0.312500
vt 0.500000 0.687500
vt 0.375000 0.312500
vt 0.375000 0.687500
vt 0.250000 0.312500
vt 0.250000 0.687500
vt 0.125000 0.312500
vt 0.125000 0.687500
vt 0.000000 0.312500
vt 0.000000 0.687500
s 0
usemtl Material
f 2/1/1 3/2/1 1/3/1
f 4/4/2 5/5/2 3/2/2
f 6/6/3 7/7/3 5/5/3
f 8/8/4 9/9/4 7/7/4
f 10/10/5 11/11/5 9/9/5
f 12/12/6 13/13/6 11/11/6
f 14/14/7 15/15/7 13/13/7
f 16/16/8 1/17/8 15/15/8
f 2/1/1 4/4/1 3/2/1
f 4/4/2 6/6/2 5/5/2
f 6/6/3 8/8/3 7/7/3
f 8/8/4 10/10/4 9/9/4
f 10/10/5 12/12/5 11/11/5
f 12/12/6 14/14/6 13/13/6
f 14/14/7 16/16/7 15/15/7
f 16/16/8 2/18/8 1/17/8
