# Blender 4.1.1
# www.blender.org
mtllib earth.mtl
o Sphere
v 0.000000 0.382683 -0.923880
v 0.000000 0.000000 -1.000000
v 0.000000 -0.382683 -0.923880
v 0.000000 -0.923880 -0.382683
v 0.146447 0.923880 -0.353553
v 0.270598 0.707107 -0.653281
v 0.353553 0.382683 -0.853553
v 0.382683 0.000000 -0.923880
v 0.353553 -0.382683 -0.853553
v 0.270598 -0.707107 -0.653281
v 0.146447 -0.923880 -0.353553
v 0.270598 0.923880 -0.270598
v 0.500000 0.707107 -0.500000
v 0.653282 0.382683 -0.653281
v 0.707107 0.000000 -0.707107
v 0.653282 -0.382683 -0.653281
v 0.500000 -0.707107 -0.500000
v 0.270598 -0.923880 -0.270598
v 0.353553 0.923880 -0.146447
v 0.653281 0.707107 -0.270598
v 0.853553 0.382683 -0.353553
v 0.923880 0.000000 -0.382683
v 0.853553 -0.382683 -0.353553
v 0.653281 -0.707107 -0.270598
v 0.353553 -0.923880 -0.146447
v 0.382683 0.923880 0.000000
v 0.707107 0.707107 0.000000
v 0.923880 0.382683 0.000000
v 1.000000 0.000000 0.000000
v 0.923880 -0.382683 0.000000
v 0.707107 -0.707107 0.000000
v 0.382683 -0.923880 0.000000
v 0.353553 0.923880 0.146447
v 0.653281 0.707107 0.270598
v 0.853553 0.382683 0.353554
v 0.923879 0.000000 0.382684
v 0.853553 -0.382683 0.353554
v 0.653281 -0.707107 0.270598
v 0.353553 -0.923880 0.146447
v 0.270598 0.923880 0.270598
v 0.500000 0.707107 0.500000
v 0.653281 0.382683 0.653282
v 0.707107 0.000000 0.707107
v 0.653281 -0.382683 0.653282
v 0.500000 -0.707107 0.500000
v 0.270598 -0.923880 0.270598
v 0.146447 0.923880 0.353553
v 0.270598 0.707107 0.653281
v 0.353553 0.382683 0.853553
v 0.382683 0.000000 0.923880
v 0.353553 -0.382683 0.853553
v 0.270598 -0.707107 0.653281
v 0.146447 -0.923880 0.353553
v -0.000000 0.923880 0.382683
v -0.000000 0.707107 0.707107
v -0.000000 0.382683 0.923879
v -0.000000 0.000000 1.000000
v -0.000000 -0.382683 0.923879
v -0.000000 -0.707107 0.707107
v -0.000000 -0.923880 0.382683
v 0.000000 -1.000000 0.000000
v 0.000000 1.000000 0.000000
v -0.146447 0.923880 0.353553
v -0.270598 0.707107 0.653281
v -0.353554 0.382683 0.853553
v -0.382684 0.000000 0.923879
v -0.353554 -0.382683 0.853553
v -0.270598 -0.707107 0.653281
v -0.146447 -0.923880 0.353553
v -0.270598 0.923880 0.270598
v -0.500000 0.707107 0.500000
v -0.653282 0.382683 0.653281
v -0.707107 0.000000 0.707106
v -0.653282 -0.382683 0.653281
v -0.500000 -0.707107 0.500000
v -0.270598 -0.923880 0.270598
v -0.353553 0.923880 0.146446
v -0.653281 0.707107 0.270598
v -0.853553 0.382683 0.353553
v -0.923880 0.000000 0.382683
v -0.853553 -0.382683 0.353553
v -0.653281 -0.707107 0.270598
v -0.353553 -0.923880 0.146446
v -0.382683 0.923880 -0.000000
v -0.707107 0.707107 -0.000000
v -0.923879 0.382683 -0.000000
v -1.000000 0.000000 -0.000001
v -0.923879 -0.382683 -0.000000
v -0.707107 -0.707107 -0.000000
v -0.382683 -0.923880 -0.000000
v -0.353553 0.923880 -0.146447
v -0.653281 0.707107 -0.270598
v -0.853553 0.382683 -0.353554
v -0.923879 0.000000 -0.382684
v -0.853553 -0.382683 -0.353554
v -0.653281 -0.707107 -0.270598
v -0.353553 -0.923880 -0.146447
v -0.270598 0.923880 -0.270598
v -0.500000 0.707107 -0.500000
v -0.653281 0.382683 -0.653282
v -0.707106 0.000000 -0.707107
v -0.653281 -0.382683 -0.653282
v -0.500000 -0.707107 -0.500000
v -0.270598 -0.923880 -0.270598
v -0.146446 0.923880 -0.353554
v -0.270598 0.707107 -0.653281
v -0.353553 0.382683 -0.853553
v -0.382683 0.000000 -0.923880
v -0.353553 -0.382683 -0.853553
v -0.270598 -0.707107 -0.653281
v -0.146446 -0.923880 -0.353554
v 0.000000 0.923880 -0.382683
v 0.000000 0.707107 -0.707107
v 0.000000 -0.707107 -0.707107
vn 0.1632 -0.5481 -0.8203
vn 0.1915 0.1915 -0.9626
vn 0.1098 0.8264 -0.5522
vn 0.1098 -0.8264 -0.5522
vn 0.1915 -0.1915 -0.9626
vn 0.1632 0.5481 -0.8203
vn 0.0388 0.9800 -0.1949
vn 0.0388 -0.9800 -0.1949
vn 0.3128 -0.8264 -0.4681
vn 0.5453 -0.1915 -0.8161
vn 0.4647 0.5481 -0.6954
vn 0.1104 0.9800 -0.1653
vn 0.1104 -0.9800 -0.1653
vn 0.4647 -0.5481 -0.6954
vn 0.5453 0.1915 -0.8161
vn 0.3128 0.8264 -0.4681
vn 0.6954 0.5481 -0.4647
vn 0.1653 0.9800 -0.1104
vn 0.1653 -0.9800 -0.1104
vn 0.6954 -0.5481 -0.4647
vn 0.8161 0.1915 -0.5453
vn 0.4681 0.8264 -0.3128
vn 0.4681 -0.8264 -0.3128
vn 0.8161 -0.1915 -0.5453
vn 0.1949 -0.9800 -0.0388
vn 0.8203 -0.5481 -0.1632
vn 0.9626 0.1915 -0.1915
vn 0.5522 0.8264 -0.1098
vn 0.5522 -0.8264 -0.1098
vn 0.9626 -0.1915 -0.1915
vn 0.8203 0.5481 -0.1632
vn 0.1949 0.9800 -0.0388
vn 0.5522 0.8264 0.1098
vn 0.5522 -0.8264 0.1098
vn 0.9626 -0.1915 0.1915
vn 0.8203 0.5481 0.1632
vn 0.1949 0.9800 0.0388
vn 0.1949 -0.9800 0.0388
vn 0.8203 -0.5481 0.1632
vn 0.9626 0.1915 0.1915
vn 0.4681 -0.8264 0.3128
vn 0.8161 -0.1915 0.5453
vn 0.6954 0.5481 0.4647
vn 0.1653 0.9800 0.1104
vn 0.1653 -0.9800 0.1104
vn 0.6954 -0.5481 0.4647
vn 0.8161 0.1915 0.5453
vn 0.4681 0.8264 0.3128
vn 0.1104 0.9800 0.1653
vn 0.1104 -0.9800 0.1653
vn 0.4647 -0.5481 0.6954
vn 0.5453 0.1915 0.8161
vn 0.3128 0.8264 0.4681
vn 0.3128 -0.8264 0.4681
vn 0.5453 -0.1915 0.8161
vn 0.4647 0.5481 0.6954
vn 0.1632 -0.5481 0.8203
vn 0.1915 0.1915 0.9626
vn 0.1098 0.8264 0.5522
vn 0.1098 -0.8264 0.5522
vn 0.1915 -0.1915 0.9626
vn 0.1632 0.5481 0.8203
vn 0.0388 0.9800 0.1949
vn 0.0388 -0.9800 0.1949
vn -0.1098 -0.8264 0.5522
vn -0.1915 -0.1915 0.9626
vn -0.1632 0.5481 0.8203
vn -0.0388 0.9800 0.1949
vn -0.0388 -0.9800 0.1949
vn -0.1632 -0.5481 0.8203
vn -0.1915 0.1915 0.9626
vn -0.1098 0.8264 0.5522
vn -0.5453 -0.1915 0.8161
vn -0.4647 0.5481 0.6954
vn -0.1104 0.9800 0.1653
vn -0.1104 -0.9800 0.1653
vn -0.4647 -0.5481 0.6954
vn -0.5453 0.1915 0.8161
vn -0.3128 0.8264 0.4681
vn -0.3128 -0.8264 0.4681
vn -0.1653 -0.9800 0.1104
vn -0.6954 -0.5481 0.4647
vn -0.8161 0.1915 0.5453
vn -0.4681 0.8264 0.3128
vn -0.4681 -0.8264 0.3128
vn -0.8161 -0.1915 0.5453
vn -0.6954 0.5481 0.4647
vn -0.1653 0.9800 0.1104
vn -0.9626 0.1915 0.1915
vn -0.5522 0.8264 0.1098
vn -0.5522 -0.8264 0.1098
vn -0.9626 -0.1915 0.1915
vn -0.8203 0.5481 0.1632
vn -0.1949 0.9800 0.0388
vn -0.1949 -0.9800 0.0388
vn -0.8203 -0.5481 0.1632
vn -0.5522 -0.8264 -0.1098
vn -0.9626 -0.1915 -0.1915
vn -0.8203 0.5481 -0.1632
vn -0.1949 0.9800 -0.0388
vn -0.1949 -0.9800 -0.0388
vn -0.8203 -0.5481 -0.1632
vn -0.9626 0.1915 -0.1915
vn -0.5522 0.8264 -0.1098
vn -0.6954 0.5481 -0.4647
vn -0.1653 0.9800 -0.1104
vn -0.1653 -0.9800 -0.1104
vn -0.6954 -0.5481 -0.4647
vn -0.8161 0.1915 -0.5453
vn -0.4681 0.8264 -0.3128
vn -0.4681 -0.8264 -0.3128
vn -0.8161 -0.1915 -0.5453
vn -0.1104 -0.9800 -0.1653
vn -0.4647 -0.5481 -0.6954
vn -0.5453 0.1915 -0.8161
vn -0.3128 0.8264 -0.4681
vn -0.3128 -0.8264 -0.4681
vn -0.5453 -0.1915 -0.8161
vn -0.4647 0.5481 -0.6954
vn -0.1104 0.9800 -0.1653
vn -0.1098 0.8264 -0.5522
vn -0.1098 -0.8264 -0.5522
vn -0.1915 -0.1915 -0.9626
vn -0.1632 0.5481 -0.8203
vn -0.0388 0.9800 -0.1949
vn -0.0388 -0.9800 -0.1949
vn -0.1632 -0.5481 -0.8203
vn -0.1915 0.1915 -0.9626
vt 0.750000 0.250000
vt 0.687500 0.375000
vt 0.687500 0.250000
vt 0.750000 0.625000
vt 0.687500 0.500000
vt 0.750000 0.500000
vt 0.750000 0.750000
vt 0.687500 0.875000
vt 0.687500 0.750000
vt 0.687500 0.125000
vt 0.750000 0.125000
vt 0.750000 0.375000
vt 0.687500 0.625000
vt 0.750000 0.875000
vt 0.718750 1.000000
vt 0.718750 0.000000
vt 0.625000 0.250000
vt 0.625000 0.125000
vt 0.625000 0.375000
vt 0.625000 0.750000
vt 0.625000 0.625000
vt 0.656250 1.000000
vt 0.625000 0.875000
vt 0.656250 0.000000
vt 0.625000 0.500000
vt 0.562500 0.625000
vt 0.593750 1.000000
vt 0.562500 0.875000
vt 0.593750 0.000000
vt 0.562500 0.125000
vt 0.562500 0.250000
vt 0.562500 0.500000
vt 0.562500 0.750000
vt 0.562500 0.375000
vt 0.531250 0.000000
vt 0.500000 0.125000
vt 0.500000 0.250000
vt 0.500000 0.625000
vt 0.500000 0.500000
vt 0.500000 0.750000
vt 0.500000 0.375000
vt 0.531250 1.000000
vt 0.500000 0.875000
vt 0.437500 0.750000
vt 0.437500 0.125000
vt 0.437500 0.375000
vt 0.437500 0.625000
vt 0.468750 1.000000
vt 0.437500 0.875000
vt 0.468750 0.000000
vt 0.437500 0.250000
vt 0.437500 0.500000
vt 0.375000 0.125000
vt 0.375000 0.375000
vt 0.375000 0.625000
vt 0.406250 1.000000
vt 0.375000 0.875000
vt 0.406250 0.000000
vt 0.375000 0.250000
vt 0.375000 0.500000
vt 0.375000 0.750000
vt 0.343750 1.000000
vt 0.312500 0.875000
vt 0.343750 0.000000
vt 0.312500 0.125000
vt 0.312500 0.375000
vt 0.312500 0.250000
vt 0.312500 0.625000
vt 0.312500 0.500000
vt 0.312500 0.750000
vt 0.250000 0.375000
vt 0.250000 0.250000
vt 0.250000 0.625000
vt 0.250000 0.500000
vt 0.250000 0.750000
vt 0.250000 0.125000
vt 0.281250 1.000000
vt 0.250000 0.875000
vt 0.281250 0.000000
vt 0.187500 0.125000
vt 0.187500 0.375000
vt 0.187500 0.625000
vt 0.218750 1.000000
vt 0.187500 0.875000
vt 0.218750 0.000000
vt 0.187500 0.250000
vt 0.187500 0.500000
vt 0.187500 0.750000
vt 0.125000 0.375000
vt 0.125000 0.625000
vt 0.156250 1.000000
vt 0.125000 0.875000
vt 0.156250 0.000000
vt 0.125000 0.125000
vt 0.125000 0.250000
vt 0.125000 0.500000
vt 0.125000 0.750000
vt 0.093750 0.000000
vt 0.062500 0.125000
vt 0.062500 0.375000
vt 0.062500 0.250000
vt 0.062500 0.625000
vt 0.062500 0.500000
vt 0.062500 0.750000
vt 0.093750 1.000000
vt 0.062500 0.875000
vt 0.000000 0.625000
vt 0.000000 0.500000
vt 0.000000 0.750000
vt 0.000000 0.250000
vt 0.000000 0.125000
vt 0.000000 0.375000
vt 0.031250 1.000000
vt 0.000000 0.875000
vt 0.031250 0.000000
vt 1.000000 0.250000
vt 0.937500 0.125000
vt 1.000000 0.125000
vt 1.000000 0.500000
vt 0.937500 0.375000
vt 1.000000 0.375000
vt 1.000000 0.750000
vt 0.937500 0.625000
vt 1.000000 0.625000
vt 1.000000 0.875000
vt 0.968750 1.000000
vt 0.937500 0.875000
vt 0.968750 0.000000
vt 0.937500 0.250000
vt 0.937500 0.500000
vt 0.937500 0.750000
vt 0.875000 0.625000
vt 0.906250 1.000000
vt 0.875000 0.875000
vt 0.906250 0.000000
vt 0.875000 0.125000
vt 0.875000 0.375000
vt 0.875000 0.250000
vt 0.875000 0.500000
vt 0.875000 0.750000
vt 0.843750 0.000000
vt 0.812500 0.125000
vt 0.812500 0.375000
vt 0.812500 0.250000
vt 0.812500 0.625000
vt 0.812500 0.500000
vt 0.812500 0.750000
vt 0.843750 1.000000
vt 0.812500 0.875000
vt 0.781250 1.000000
vt 0.781250 0.000000
s 0
usemtl Material.001
f 114/1/1 9/2/1 10/3/1
f 1/4/2 8/5/2 2/6/2
f 113/7/3 5/8/3 6/9/3
f 114/1/4 11/10/4 4/11/4
f 2/6/5 9/2/5 3/12/5
f 113/7/6 7/13/6 1/4/6
f 112/14/7 62/15/7 5/8/7
f 61/16/8 4/11/8 11/10/8
f 11/10/9 17/17/9 18/18/9
f 8/5/10 16/19/10 9/2/10
f 7/13/11 13/20/11 14/21/11
f 5/8/12 62/22/12 12/23/12
f 61/24/13 11/10/13 18/18/13
f 9/2/14 17/17/14 10/3/14
f 8/5/15 14/21/15 15/25/15
f 5/8/16 13/20/16 6/9/16
f 13/20/17 21/26/17 14/21/17
f 12/23/18 62/27/18 19/28/18
f 61/29/19 18/18/19 25/30/19
f 16/19/20 24/31/20 17/17/20
f 15/25/21 21/26/21 22/32/21
f 12/23/22 20/33/22 13/20/22
f 18/18/23 24/31/23 25/30/23
f 15/25/24 23/34/24 16/19/24
f 61/35/25 25/30/25 32/36/25
f 23/34/26 31/37/26 24/31/26
f 22/32/27 28/38/27 29/39/27
f 19/28/28 27/40/28 20/33/28
f 24/31/29 32/36/29 25/30/29
f 22/32/30 30/41/30 23/34/30
f 20/33/31 28/38/31 21/26/31
f 19/28/32 62/42/32 26/43/32
f 26/43/33 34/44/33 27/40/33
f 31/37/34 39/45/34 32/36/34
f 29/39/35 37/46/35 30/41/35
f 27/40/36 35/47/36 28/38/36
f 26/43/37 62/48/37 33/49/37
f 61/50/38 32/36/38 39/45/38
f 31/37/39 37/46/39 38/51/39
f 29/39/40 35/47/40 36/52/40
f 38/51/41 46/53/41 39/45/41
f 36/52/42 44/54/42 37/46/42
f 34/44/43 42/55/43 35/47/43
f 33/49/44 62/56/44 40/57/44
f 61/58/45 39/45/45 46/53/45
f 38/51/46 44/54/46 45/59/46
f 36/52/47 42/55/47 43/60/47
f 34/44/48 40/57/48 41/61/48
f 40/57/49 62/62/49 47/63/49
f 61/64/50 46/53/50 53/65/50
f 45/59/51 51/66/51 52/67/51
f 43/60/52 49/68/52 50/69/52
f 40/57/53 48/70/53 41/61/53
f 45/59/54 53/65/54 46/53/54
f 43/60/55 51/66/55 44/54/55
f 41/61/56 49/68/56 42/55/56
f 52/67/57 58/71/57 59/72/57
f 50/69/58 56/73/58 57/74/58
f 47/63/59 55/75/59 48/70/59
f 53/65/60 59/72/60 60/76/60
f 50/69/61 58/71/61 51/66/61
f 48/70/62 56/73/62 49/68/62
f 47/63/63 62/77/63 54/78/63
f 61/79/64 53/65/64 60/76/64
f 59/72/65 69/80/65 60/76/65
f 57/74/66 67/81/66 58/71/66
f 55/75/67 65/82/67 56/73/67
f 54/78/68 62/83/68 63/84/68
f 61/85/69 60/76/69 69/80/69
f 59/72/70 67/81/70 68/86/70
f 57/74/71 65/82/71 66/87/71
f 55/75/72 63/84/72 64/88/72
f 66/87/73 74/89/73 67/81/73
f 64/88/74 72/90/74 65/82/74
f 63/84/75 62/91/75 70/92/75
f 61/93/76 69/80/76 76/94/76
f 68/86/77 74/89/77 75/95/77
f 66/87/78 72/90/78 73/96/78
f 64/88/79 70/92/79 71/97/79
f 68/86/80 76/94/80 69/80/80
f 61/98/81 76/94/81 83/99/81
f 75/95/82 81/100/82 82/101/82
f 73/96/83 79/102/83 80/103/83
f 70/92/84 78/104/84 71/97/84
f 75/95/85 83/99/85 76/94/85
f 73/96/86 81/100/86 74/89/86
f 71/97/87 79/102/87 72/90/87
f 70/92/88 62/105/88 77/106/88
f 80/103/89 86/107/89 87/108/89
f 77/106/90 85/109/90 78/104/90
f 83/99/91 89/110/91 90/111/91
f 80/103/92 88/112/92 81/100/92
f 78/104/93 86/107/93 79/102/93
f 77/106/94 62/113/94 84/114/94
f 61/115/95 83/99/95 90/111/95
f 82/101/96 88/112/96 89/110/96
f 89/116/97 97/117/97 90/118/97
f 87/119/98 95/120/98 88/121/98
f 85/122/99 93/123/99 86/124/99
f 84/125/100 62/126/100 91/127/100
f 61/128/101 90/118/101 97/117/101
f 89/116/102 95/120/102 96/129/102
f 87/119/103 93/123/103 94/130/103
f 84/125/104 92/131/104 85/122/104
f 92/131/105 100/132/105 93/123/105
f 91/127/106 62/133/106 98/134/106
f 61/135/107 97/117/107 104/136/107
f 96/129/108 102/137/108 103/138/108
f 94/130/109 100/132/109 101/139/109
f 91/127/110 99/140/110 92/131/110
f 96/129/111 104/136/111 97/117/111
f 94/130/112 102/137/112 95/120/112
f 61/141/113 104/136/113 111/142/113
f 103/138/114 109/143/114 110/144/114
f 101/139/115 107/145/115 108/146/115
f 98/134/116 106/147/116 99/140/116
f 104/136/117 110/144/117 111/142/117
f 101/139/118 109/143/118 102/137/118
f 99/140/119 107/145/119 100/132/119
f 98/134/120 62/148/120 105/149/120
f 105/149/121 113/7/121 106/147/121
f 110/144/122 4/11/122 111/142/122
f 108/146/123 3/12/123 109/143/123
f 106/147/124 1/4/124 107/145/124
f 105/149/125 62/150/125 112/14/125
f 61/151/126 111/142/126 4/11/126
f 110/144/127 3/12/127 114/1/127
f 108/146/128 1/4/128 2/6/128
f 114/1/1 3/12/1 9/2/1
f 1/4/2 7/13/2 8/5/2
f 113/7/3 112/14/3 5/8/3
f 114/1/4 10/3/4 11/10/4
f 2/6/5 8/5/5 9/2/5
f 113/7/6 6/9/6 7/13/6
f 11/10/9 10/3/9 17/17/9
f 8/5/10 15/25/10 16/19/10
f 7/13/11 6/9/11 13/20/11
f 9/2/14 16/19/14 17/17/14
f 8/5/15 7/13/15 14/21/15
f 5/8/16 12/23/16 13/20/16
f 13/20/17 20/33/17 21/26/17
f 16/19/20 23/34/20 24/31/20
f 15/25/21 14/21/21 21/26/21
f 12/23/22 19/28/22 20/33/22
f 18/18/23 17/17/23 24/31/23
f 15/25/24 22/32/24 23/34/24
f 23/34/26 30/41/26 31/37/26
f 22/32/27 21/26/27 28/38/27
f 19/28/28 26/43/28 27/40/28
f 24/31/29 31/37/29 32/36/29
f 22/32/30 29/39/30 30/41/30
f 20/33/31 27/40/31 28/38/31
f 26/43/33 33/49/33 34/44/33
f 31/37/34 38/51/34 39/45/34
f 29/39/35 36/52/35 37/46/35
f 27/40/36 34/44/36 35/47/36
f 31/37/39 30/41/39 37/46/39
f 29/39/40 28/38/40 35/47/40
f 38/51/41 45/59/41 46/53/41
f 36/52/42 43/60/42 44/54/42
f 34/44/43 41/61/43 42/55/43
f 38/51/46 37/46/46 44/54/46
f 36/52/47 35/47/47 42/55/47
f 34/44/48 33/49/48 40/57/48
f 45/59/51 44/54/51 51/66/51
f 43/60/52 42/55/52 49/68/52
f 40/57/53 47/63/53 48/70/53
f 45/59/54 52/67/54 53/65/54
f 43/60/55 50/69/55 51/66/55
f 41/61/56 48/70/56 49/68/56
f 52/67/57 51/66/57 58/71/57
f 50/69/58 49/68/58 56/73/58
f 47/63/59 54/78/59 55/75/59
f 53/65/60 52/67/60 59/72/60
f 50/69/61 57/74/61 58/71/61
f 48/70/62 55/75/62 56/73/62
f 59/72/65 68/86/65 69/80/65
f 57/74/66 66/87/66 67/81/66
f 55/75/67 64/88/67 65/82/67
f 59/72/70 58/71/70 67/81/70
f 57/74/71 56/73/71 65/82/71
f 55/75/72 54/78/72 63/84/72
f 66/87/73 73/96/73 74/89/73
f 64/88/74 71/97/74 72/90/74
f 68/86/77 67/81/77 74/89/77
f 66/87/78 65/82/78 72/90/78
f 64/88/79 63/84/79 70/92/79
f 68/86/80 75/95/80 76/94/80
f 75/95/82 74/89/82 81/100/82
f 73/96/83 72/90/83 79/102/83
f 70/92/84 77/106/84 78/104/84
f 75/95/85 82/101/85 83/99/85
f 73/96/86 80/103/86 81/100/86
f 71/97/87 78/104/87 79/102/87
f 80/103/89 79/102/89 86/107/89
f 77/106/90 84/114/90 85/109/90
f 83/99/91 82/101/91 89/110/91
f 80/103/92 87/108/92 88/112/92
f 78/104/93 85/109/93 86/107/93
f 82/101/96 81/100/96 88/112/96
f 89/116/97 96/129/97 97/117/97
f 87/119/98 94/130/98 95/120/98
f 85/122/99 92/131/99 93/123/99
f 89/116/102 88/121/102 95/120/102
f 87/119/103 86/124/103 93/123/103
f 84/125/104 91/127/104 92/131/104
f 92/131/105 99/140/105 100/132/105
f 96/129/108 95/120/108 102/137/108
f 94/130/109 93/123/109 100/132/109
f 91/127/110 98/134/110 99/140/110
f 96/129/111 103/138/111 104/136/111
f 94/130/112 101/139/112 102/137/112
f 103/138/114 102/137/114 109/143/114
f 101/139/115 100/132/115 107/145/115
f 98/134/116 105/149/116 106/147/116
f 104/136/117 103/138/117 110/144/117
f 101/139/118 108/146/118 109/143/118
f 99/140/119 106/147/119 107/145/119
f 105/149/121 112/14/121 113/7/121
f 110/144/122 114/1/122 4/11/122
f 108/146/123 2/6/123 3/12/123
f 106/147/124 113/7/124 1/4/124
f 110/144/127 109/143/127 3/12/127
f 108/146/128 107/145/128 1/4/128
