# Blender 4.1.1
# www.blender.org
mtllib heavytank1.mtl
o Cube
v 0.250000 0.200000 -0.500000
v 0.200000 0.000000 -0.320000
v 0.250000 0.200000 0.500000
v 0.200000 0.000000 0.320000
v -0.250000 0.200000 -0.500000
v -0.200000 0.000000 -0.320000
v -0.250000 0.200000 0.500000
v -0.200000 0.000000 0.320000
v -0.250000 0.300000 0.000000
v 0.150000 0.500000 0.340000
v -0.150000 0.500000 0.340000
v 0.150000 0.500000 0.160000
v -0.150000 0.500000 0.160000
v 0.250000 0.300000 0.000000
v -0.030000 0.370000 0.160000
v -0.030000 0.430000 0.160000
v -0.030000 0.370000 -0.500000
v -0.030000 0.430000 -0.500000
v 0.030000 0.370000 0.160000
v 0.030000 0.430000 0.160000
v 0.030000 0.370000 -0.500000
v 0.030000 0.430000 -0.500000
vn -0.9155 0.3946 0.0789
vn -0.0000 -0.6690 0.7433
vn -0.9701 -0.2425 -0.0000
vn -0.0000 -1.0000 -0.0000
vn 0.9701 -0.2425 -0.0000
vn -0.0000 -0.6690 -0.7433
vn -0.0000 0.9806 -0.1961
vn -0.0000 0.4706 0.8824
vn -0.0000 1.0000 -0.0000
vn -0.0000 0.6247 -0.7809
vn -0.9487 0.3162 -0.0000
vn -1.0000 -0.0000 -0.0000
vn -0.0000 -0.0000 -1.0000
vn 1.0000 -0.0000 -0.0000
vn -0.0000 -0.0000 1.0000
vn 0.9487 0.3162 -0.0000
vn 0.9155 0.3946 0.0789
vt 0.012500 0.137500
vt 0.112500 0.137500
vt 0.112500 0.237500
vt 0.987500 0.137500
vt 0.887500 0.237500
vt 0.887500 0.137500
vt 0.110053 0.202951
vt 0.033111 0.147049
vt 0.014947 0.202951
vt 0.487500 0.887500
vt 0.387500 0.987500
vt 0.387500 0.887500
vt 0.610053 0.827951
vt 0.533111 0.772049
vt 0.514947 0.827951
vt 0.612500 0.012500
vt 0.512500 0.112500
vt 0.512500 0.012500
vt 0.987500 0.762500
vt 0.887500 0.862500
vt 0.887500 0.762500
vt 0.628125 0.012500
vt 0.528125 0.112500
vt 0.528125 0.012500
vt 0.012500 0.237500
vt 0.612500 0.028125
vt 0.512500 0.128125
vt 0.512500 0.028125
vt 0.612500 0.762500
vt 0.512500 0.862500
vt 0.512500 0.762500
vt 0.387500 0.987500
vt 0.987500 0.512500
vt 0.887500 0.612500
vt 0.887500 0.512500
vt 0.612500 0.862500
vt 0.987500 0.237500
vt 0.062500 0.237500
vt 0.091889 0.147049
vt 0.487500 0.987500
vt 0.562500 0.862500
vt 0.591889 0.772049
vt 0.612500 0.112500
vt 0.987500 0.862500
vt 0.628125 0.112500
vt 0.612500 0.128125
vt 0.487500 0.987500
vt 0.987500 0.612500
s 0
usemtl Material
f 7/1/1 13/2/1 9/3/1
f 3/4/2 8/5/2 4/6/2
f 7/7/3 5/8/3 6/9/3
f 2/10/4 8/11/4 6/12/4
f 1/13/5 3/14/5 4/15/5
f 5/16/6 2/17/6 6/18/6
f 5/19/7 14/20/7 1/21/7
f 3/4/8 11/5/8 7/6/8
f 10/19/9 13/20/9 11/21/9
f 12/22/10 9/23/10 13/24/10
f 11/1/11 13/2/11 7/3/11
f 16/2/12 17/25/12 15/1/12
f 18/26/13 21/27/13 17/28/13
f 22/29/14 19/30/14 21/31/14
f 20/4/15 15/5/15 19/6/15
f 21/10/4 15/32/4 17/12/4
f 18/33/9 20/34/9 22/35/9
f 3/31/16 12/29/16 10/36/16
f 14/31/17 12/29/17 3/36/17
f 3/4/2 7/37/2 8/5/2
f 6/9/3 8/38/3 7/7/3
f 7/7/12 9/39/12 5/8/12
f 2/10/4 4/40/4 8/11/4
f 4/15/5 2/41/5 1/13/5
f 1/13/14 14/42/14 3/14/14
f 5/16/6 1/43/6 2/17/6
f 5/19/7 9/44/7 14/20/7
f 3/4/8 10/37/8 11/5/8
f 10/19/9 12/44/9 13/20/9
f 12/22/10 14/45/10 9/23/10
f 16/2/12 18/3/12 17/25/12
f 18/26/13 22/46/13 21/27/13
f 22/29/14 20/36/14 19/30/14
f 20/4/15 16/37/15 15/5/15
f 21/10/4 19/47/4 15/32/4
f 18/33/9 16/48/9 20/34/9
