# Blender 4.1.1
# www.blender.org
mtllib heavytank.mtl
o HeavyTank
v -0.300000 0.000000 0.900000
v -0.500000 0.400000 -0.900000
v -0.300000 0.000000 -0.700000
v 0.300000 0.000000 0.900000
v 0.500000 0.400000 -0.900000
v 0.300000 0.000000 -0.700000
v -0.400000 0.400000 1.100000
v 0.400000 0.400000 1.100000
v 0.300000 1.000000 0.800000
v -0.300000 0.600000 0.100000
v 0.300000 0.600000 0.100000
v -0.300000 1.000000 0.800000
v -0.300000 1.000000 0.400000
v 0.300000 1.000000 0.400000
v -0.050000 0.800000 0.300000
v 0.050000 0.800000 0.300000
v -0.050000 0.900000 0.300000
v 0.050000 0.900000 0.300000
v -0.050000 0.800000 -0.900000
v 0.050000 0.800000 -0.900000
v -0.050000 0.900000 -0.900000
v 0.050000 0.900000 -0.900000
vn -0.7994 0.5995 0.0400
vn 0.7994 0.5995 0.0400
vn -0.9890 0.1282 -0.0733
vn -0.0000 0.4472 0.8944
vn 0.9890 0.1282 -0.0733
vn 1.0000 -0.0000 -0.0000
vn -0.0000 -1.0000 -0.0000
vn -1.0000 -0.0000 -0.0000
vn -0.0000 -0.0000 -1.0000
vn -0.0000 0.6000 -0.8000
vn -0.0000 1.0000 -0.0000
vn -0.0000 0.9806 -0.1961
vn 0.9701 -0.2425 -0.0000
vn -0.0000 -0.4472 -0.8944
vn -0.9701 -0.2425 -0.0000
vn -0.0000 -0.4472 0.8944
vn 0.9024 -0.4286 0.0451
vn -0.9024 -0.4286 0.0451
vt 0.637500 0.637500
vt 0.737500 0.637500
vt 0.737500 0.737500
vt 0.121875 0.153125
vt 0.221875 0.153125
vt 0.221875 0.253125
vt 0.987500 0.387500
vt 0.887500 0.487500
vt 0.887500 0.387500
vt 0.621875 0.778125
vt 0.721875 0.778125
vt 0.721875 0.878125
vt 0.987500 0.637500
vt 0.887500 0.737500
vt 0.887500 0.637500
vt 0.862500 0.012500
vt 0.762500 0.112500
vt 0.762500 0.012500
vt 0.237500 0.012500
vt 0.137500 0.112500
vt 0.137500 0.012500
vt 0.753125 0.153125
vt 0.653125 0.253125
vt 0.653125 0.153125
vt 0.862500 0.262500
vt 0.762500 0.362500
vt 0.762500 0.262500
vt 0.487500 0.762500
vt 0.387500 0.862500
vt 0.387500 0.762500
vt 0.612500 0.762500
vt 0.512500 0.862500
vt 0.512500 0.762500
vt 0.612500 0.012500
vt 0.512500 0.112500
vt 0.512500 0.012500
vt 0.112500 0.137500
vt 0.012500 0.237500
vt 0.012500 0.137500
vt 0.487500 0.137500
vt 0.387500 0.237500
vt 0.387500 0.137500
vt 0.987500 0.762500
vt 0.887500 0.862500
vt 0.887500 0.762500
vt 0.487500 0.887500
vt 0.387500 0.987500
vt 0.387500 0.887500
vt 0.987500 0.487500
vt 0.987500 0.737500
vt 0.862500 0.112500
vt 0.237500 0.112500
vt 0.753125 0.253125
vt 0.862500 0.362500
vt 0.487500 0.862500
vt 0.612500 0.862500
vt 0.612500 0.112500
vt 0.112500 0.237500
vt 0.487500 0.237500
vt 0.987500 0.862500
vt 0.487500 0.987500
s 0
usemtl Material
f 7/1/1 10/2/1 2/3/1
f 5/1/2 11/2/2 8/3/2
f 12/4/3 10/5/3 7/6/3
f 8/7/4 12/8/4 7/9/4
f 11/10/5 9/11/5 8/12/5
f 11/1/6 14/2/6 9/3/6
f 19/13/7 16/14/7 15/15/7
f 13/1/8 10/2/8 12/3/8
f 19/16/9 22/17/9 20/18/9
f 10/19/10 14/20/10 11/21/10
f 21/22/8 15/23/8 17/24/8
f 22/13/11 17/14/11 18/15/11
f 20/25/6 18/26/6 16/27/6
f 2/28/12 11/29/12 5/30/12
f 6/31/13 8/32/13 4/33/13
f 3/34/14 5/35/14 6/36/14
f 7/37/15 3/38/15 1/39/15
f 4/40/16 7/41/16 1/42/16
f 12/43/11 14/44/11 13/45/11
f 1/46/7 6/47/7 4/48/7
f 8/7/4 9/49/4 12/8/4
f 19/13/7 20/50/7 16/14/7
f 19/16/9 21/51/9 22/17/9
f 10/19/10 13/52/10 14/20/10
f 21/22/8 19/53/8 15/23/8
f 22/13/11 21/50/11 17/14/11
f 20/25/6 22/54/6 18/26/6
f 2/28/12 10/55/12 11/29/12
f 6/31/17 5/56/17 8/32/17
f 3/34/14 2/57/14 5/35/14
f 7/37/18 2/58/18 3/38/18
f 4/40/16 8/59/16 7/41/16
f 12/43/11 9/60/11 14/44/11
f 1/46/7 3/61/7 6/47/7
