# Blender 4.1.1
# www.blender.org
mtllib stellar7a.mtl
o HeavyTank
v 0.321564 -1.000000 -0.781477
v 0.512826 -0.631571 1.000000
v 0.321564 -1.000000 0.781477
v -0.321564 -1.000000 -0.781477
v -0.512826 -0.631571 1.000000
v -0.321564 -1.000000 0.781477
v 0.433025 -0.631571 -1.000000
v -0.433025 -0.631571 -1.000000
v -0.291721 -0.035884 -0.699250
v 0.315397 -0.363392 0.000000
v -0.315397 -0.363392 0.000000
v 0.291721 -0.035884 -0.699250
v 0.262396 -0.038052 -0.326688
v -0.262396 -0.038052 -0.326688
v 0.059033 -0.234233 -0.127086
v -0.059033 -0.234233 -0.127086
v 0.059310 -0.121814 -0.239972
v -0.059310 -0.121814 -0.239972
v 0.059033 -0.234233 0.997479
v -0.059033 -0.234233 0.997479
v 0.059310 -0.121814 0.999419
v -0.059310 -0.121814 0.999419
vn 0.8617 0.5062 -0.0344
vn -0.8617 0.5062 -0.0344
vn 0.9777 0.2011 0.0611
vn -0.0000 0.4507 -0.8927
vn -0.9777 0.2011 0.0611
vn -0.9687 0.2358 0.0776
vn -0.0000 -1.0000 -0.0000
vn 0.9687 0.2358 0.0776
vn -0.0000 -0.0173 0.9999
vn -0.0000 0.7086 0.7056
vn 1.0000 -0.0025 -0.0000
vn -0.0000 1.0000 -0.0000
vn -1.0000 -0.0025 -0.0000
vn -0.0000 0.9659 0.2590
vn -0.9248 -0.3799 -0.0207
vn -0.0000 -0.5101 0.8601
vn 0.9248 -0.3799 -0.0207
vn -0.0000 -0.5101 -0.8601
vn -0.0000 1.0000 0.0058
vt 0.250000 0.375000
vt 0.282804 0.498011
vt 0.250000 0.625000
vt 0.250000 0.601914
vt 0.216334 0.599385
vt 0.283666 0.398086
vt 0.813387 0.830942
vt 0.752222 0.975934
vt 0.686613 0.774066
vt 0.838209 0.193282
vt 0.661791 0.192528
vt 0.691156 0.056718
vt 0.810006 0.057226
vt 0.246296 0.975649
vt 0.186372 0.830140
vt 0.313628 0.774351
vt 0.782047 0.572755
vt 0.717953 0.503260
vt 0.722123 0.427245
vt 0.887025 0.010459
vt 0.887025 0.239541
vt 0.862975 0.239541
vt 0.862975 0.010459
vt 0.782343 0.503552
vt 0.717657 0.572496
vt 0.778823 0.427504
vt 0.737975 0.488548
vt 0.762025 0.488548
vt 0.762082 0.511452
vt 0.737918 0.511452
vt 0.310752 0.452789
vt 0.439248 0.453338
vt 0.428050 0.547211
vt 0.321147 0.546754
vt 0.261450 0.686783
vt 0.261450 0.813217
vt 0.238550 0.812822
vt 0.238550 0.709779
vt 0.262082 0.123764
vt 0.262082 0.250000
vt 0.237918 0.250000
vt 0.237918 0.123764
vt 0.761450 0.761498
vt 0.761450 0.875841
vt 0.738550 0.876236
vt 0.738550 0.738502
vt 0.562500 0.062500
vt 0.937500 0.062500
vt 0.937500 0.187500
vt 0.562500 0.187500
vt 0.792716 0.807172
vt 0.792035 0.943800
vt 0.707284 0.987953
vt 0.714654 0.762047
vt 1.231436 0.543604
vt 1.362444 0.544164
vt 1.401031 0.631589
vt 1.192101 0.630696
vt 0.210778 0.806414
vt 0.289222 0.761958
vt 0.292185 0.988042
vt 0.207815 0.943166
vt 0.815131 0.543958
vt 0.684123 0.543398
vt 0.661791 0.456042
vt 0.838209 0.456796
vt 0.303776 0.087269
vt 0.309425 0.163188
vt 0.190575 0.162680
vt 0.196873 0.086812
vt 0.685176 0.090530
vt 0.816185 0.091090
vt 0.814824 0.250280
vt 0.683815 0.249720
s 0
usemtl Material
f 7/1/1 10/2/1 2/3/1
f 5/4/2 11/5/2 8/6/2
f 12/7/3 10/8/3 7/9/3
f 7/10/4 8/11/4 9/12/4 12/13/4
f 11/14/5 9/15/5 8/16/5
f 11/17/6 14/18/6 9/19/6
f 15/20/7 19/21/7 20/22/7 16/23/7
f 13/24/8 10/25/8 12/26/8
f 20/27/9 19/28/9 21/29/9 22/30/9
f 11/31/10 10/32/10 13/33/10 14/34/10
f 17/35/11 21/36/11 19/37/11 15/38/11
f 18/39/12 22/40/12 21/41/12 17/42/12
f 16/43/13 20/44/13 22/45/13 18/46/13
f 5/47/14 2/48/14 10/49/14 11/50/14
f 4/51/15 6/52/15 5/53/15 8/54/15
f 6/55/16 3/56/16 2/57/16 5/58/16
f 1/59/17 7/60/17 2/61/17 3/62/17
f 1/63/18 4/64/18 8/65/18 7/66/18
f 13/67/19 12/68/19 9/69/19 14/70/19
f 4/71/7 1/72/7 3/73/7 6/74/7
o HeavyTank.001
v 0.321564 -1.000000 -0.781477
v 0.512826 -0.631571 1.000000
v 0.321564 -1.000000 0.781477
v -0.321564 -1.000000 -0.781477
v -0.512826 -0.631571 1.000000
v -0.321564 -1.000000 0.781477
v 0.433025 -0.631571 -1.000000
v -0.433025 -0.631571 -1.000000
v -0.291721 -0.035884 -0.699250
v 0.315397 -0.363392 0.000000
v -0.315397 -0.363392 0.000000
v 0.291721 -0.035884 -0.699250
v 0.262396 -0.038052 -0.326688
v -0.262396 -0.038052 -0.326688
v 0.059033 -0.234233 -0.127086
v -0.059033 -0.234233 -0.127086
v 0.059310 -0.121814 -0.239972
v -0.059310 -0.121814 -0.239972
v 0.059033 -0.234233 0.997479
v -0.059033 -0.234233 0.997479
v 0.059310 -0.121814 0.999419
v -0.059310 -0.121814 0.999419
vn 0.8617 0.5062 -0.0344
vn -0.8617 0.5062 -0.0344
vn 0.9777 0.2011 0.0611
vn -0.0000 0.4507 -0.8927
vn -0.9777 0.2011 0.0611
vn -0.9687 0.2358 0.0776
vn -0.0000 -1.0000 -0.0000
vn 0.9687 0.2358 0.0776
vn -0.0000 -0.0173 0.9999
vn -0.0000 0.7086 0.7056
vn 1.0000 -0.0025 -0.0000
vn -0.0000 1.0000 -0.0000
vn -1.0000 -0.0025 -0.0000
vn -0.0000 0.9659 0.2590
vn -0.9572 -0.2896 -0.0000
vn -0.0000 -0.5101 0.8601
vn 0.9572 -0.2896 -0.0000
vn -0.0000 -0.5101 -0.8601
vn -0.0000 1.0000 0.0058
vn -0.8955 -0.4437 -0.0357
vn 0.8955 -0.4437 -0.0357
vt 0.250000 0.375000
vt 0.282804 0.498011
vt 0.250000 0.625000
vt 0.250000 0.601914
vt 0.216334 0.599385
vt 0.283666 0.398086
vt 0.813387 0.830942
vt 0.752222 0.975934
vt 0.686613 0.774066
vt 0.661791 0.192528
vt 0.810006 0.057226
vt 0.838209 0.193282
vt 0.246296 0.975649
vt 0.186372 0.830140
vt 0.313628 0.774351
vt 0.782047 0.572755
vt 0.717953 0.503260
vt 0.722123 0.427245
vt 0.887025 0.239541
vt 0.862975 0.010459
vt 0.887025 0.010459
vt 0.782343 0.503552
vt 0.717657 0.572496
vt 0.778823 0.427504
vt 0.762025 0.488548
vt 0.737918 0.511452
vt 0.737975 0.488548
vt 0.439248 0.453338
vt 0.321147 0.546754
vt 0.310752 0.452789
vt 0.261450 0.813217
vt 0.238550 0.709779
vt 0.261450 0.686783
vt 0.262082 0.250000
vt 0.237918 0.123764
vt 0.262082 0.123764
vt 0.761450 0.761498
vt 0.738550 0.876236
vt 0.738550 0.738502
vt 0.937500 0.062500
vt 0.562500 0.187500
vt 0.562500 0.062500
vt 0.792035 0.943800
vt 0.714654 0.762047
vt 0.792716 0.807172
vt 1.362444 0.544164
vt 1.192101 0.630696
vt 1.231436 0.543604
vt 0.289222 0.761958
vt 0.207815 0.943166
vt 0.210778 0.806414
vt 0.684123 0.543398
vt 0.838209 0.456796
vt 0.815131 0.543958
vt 0.309425 0.163188
vt 0.196873 0.086812
vt 0.303776 0.087269
vt 0.816185 0.091090
vt 0.683815 0.249720
vt 0.685176 0.090530
vt 0.691156 0.056718
vt 0.862975 0.239541
vt 0.762082 0.511452
vt 0.428050 0.547211
vt 0.238550 0.812822
vt 0.237918 0.250000
vt 0.761450 0.875841
vt 0.937500 0.187500
vt 0.707284 0.987953
vt 1.401031 0.631589
vt 0.292185 0.988042
vt 0.661791 0.456042
vt 0.190575 0.162680
vt 0.814824 0.250280
s 0
usemtl Material
f 29/75/20 32/76/20 24/77/20
f 27/78/21 33/79/21 30/80/21
f 34/81/22 32/82/22 29/83/22
f 30/84/23 34/85/23 29/86/23
f 33/87/24 31/88/24 30/89/24
f 33/90/25 36/91/25 31/92/25
f 41/93/26 38/94/26 37/95/26
f 35/96/27 32/97/27 34/98/27
f 41/99/28 44/100/28 42/101/28
f 32/102/29 36/103/29 33/104/29
f 43/105/30 37/106/30 39/107/30
f 44/108/31 39/109/31 40/110/31
f 38/111/32 44/112/32 40/113/32
f 24/114/33 33/115/33 27/116/33
f 28/117/34 30/118/34 26/119/34
f 25/120/35 27/121/35 28/122/35
f 29/123/36 25/124/36 23/125/36
f 26/126/37 29/127/37 23/128/37
f 34/129/38 36/130/38 35/131/38
f 23/132/26 28/133/26 26/134/26
f 30/84/23 31/135/23 34/85/23
f 41/93/26 42/136/26 38/94/26
f 41/99/28 43/137/28 44/100/28
f 32/102/29 35/138/29 36/103/29
f 43/105/30 41/139/30 37/106/30
f 44/108/31 43/140/31 39/109/31
f 38/111/32 42/141/32 44/112/32
f 24/114/33 32/142/33 33/115/33
f 28/117/39 27/143/39 30/118/39
f 25/120/35 24/144/35 27/121/35
f 29/123/40 24/145/40 25/124/40
f 26/126/37 30/146/37 29/127/37
f 34/129/38 31/147/38 36/130/38
f 23/132/26 25/148/26 28/133/26
o HeavyTank.002
v 0.321564 -1.000000 -0.781477
v 0.512826 -0.631571 1.000000
v 0.321564 -1.000000 0.781477
v -0.321564 -1.000000 -0.781477
v -0.512826 -0.631571 1.000000
v -0.321564 -1.000000 0.781477
v 0.433025 -0.631571 -1.000000
v -0.433025 -0.631571 -1.000000
v -0.291721 -0.035884 -0.699250
v 0.315397 -0.363392 0.000000
v -0.315397 -0.363392 0.000000
v 0.291721 -0.035884 -0.699250
v 0.262396 -0.038052 -0.326688
v -0.262396 -0.038052 -0.326688
v 0.059033 -0.234233 -0.127086
v -0.059033 -0.234233 -0.127086
v 0.059310 -0.121814 -0.239972
v -0.059310 -0.121814 -0.239972
v 0.059033 -0.234233 0.997479
v -0.059033 -0.234233 0.997479
v 0.059310 -0.121814 0.999419
v -0.059310 -0.121814 0.999419
vn 0.8617 0.5062 -0.0344
vn -0.8617 0.5062 -0.0344
vn 0.9777 0.2011 0.0611
vn -0.0000 0.4507 -0.8927
vn -0.9777 0.2011 0.0611
vn -0.9687 0.2358 0.0776
vn -0.0000 -1.0000 -0.0000
vn 0.9687 0.2358 0.0776
vn -0.0000 -0.0173 0.9999
vn -0.0000 0.7086 0.7056
vn 1.0000 -0.0025 -0.0000
vn -0.0000 1.0000 -0.0000
vn -1.0000 -0.0025 -0.0000
vn -0.0000 0.9659 0.2590
vn -0.9572 -0.2896 -0.0000
vn -0.0000 -0.5101 0.8601
vn 0.9572 -0.2896 -0.0000
vn -0.0000 -0.5101 -0.8601
vn -0.0000 1.0000 0.0058
vn -0.8955 -0.4437 -0.0357
vn 0.8955 -0.4437 -0.0357
vt 0.250000 0.375000
vt 0.282804 0.498011
vt 0.250000 0.625000
vt 0.250000 0.601914
vt 0.216334 0.599385
vt 0.283666 0.398086
vt 0.813387 0.830942
vt 0.752222 0.975934
vt 0.686613 0.774066
vt 0.661791 0.192528
vt 0.810006 0.057226
vt 0.838209 0.193282
vt 0.246296 0.975649
vt 0.186372 0.830140
vt 0.313628 0.774351
vt 0.782047 0.572755
vt 0.717953 0.503260
vt 0.722123 0.427245
vt 0.887025 0.239541
vt 0.862975 0.010459
vt 0.887025 0.010459
vt 0.782343 0.503552
vt 0.717657 0.572496
vt 0.778823 0.427504
vt 0.762025 0.488548
vt 0.737918 0.511452
vt 0.737975 0.488548
vt 0.439248 0.453338
vt 0.321147 0.546754
vt 0.310752 0.452789
vt 0.261450 0.813217
vt 0.238550 0.709779
vt 0.261450 0.686783
vt 0.262082 0.250000
vt 0.237918 0.123764
vt 0.262082 0.123764
vt 0.761450 0.761498
vt 0.738550 0.876236
vt 0.738550 0.738502
vt 0.937500 0.062500
vt 0.562500 0.187500
vt 0.562500 0.062500
vt 0.792035 0.943800
vt 0.714654 0.762047
vt 0.792716 0.807172
vt 1.362444 0.544164
vt 1.192101 0.630696
vt 1.231436 0.543604
vt 0.289222 0.761958
vt 0.207815 0.943166
vt 0.210778 0.806414
vt 0.684123 0.543398
vt 0.838209 0.456796
vt 0.815131 0.543958
vt 0.309425 0.163188
vt 0.196873 0.086812
vt 0.303776 0.087269
vt 0.816185 0.091090
vt 0.683815 0.249720
vt 0.685176 0.090530
vt 0.691156 0.056718
vt 0.862975 0.239541
vt 0.762082 0.511452
vt 0.428050 0.547211
vt 0.238550 0.812822
vt 0.237918 0.250000
vt 0.761450 0.875841
vt 0.937500 0.187500
vt 0.707284 0.987953
vt 1.401031 0.631589
vt 0.292185 0.988042
vt 0.661791 0.456042
vt 0.190575 0.162680
vt 0.814824 0.250280
s 0
usemtl Material
f 51/149/41 54/150/41 46/151/41
f 49/152/42 55/153/42 52/154/42
f 56/155/43 54/156/43 51/157/43
f 52/158/44 56/159/44 51/160/44
f 55/161/45 53/162/45 52/163/45
f 55/164/46 58/165/46 53/166/46
f 63/167/47 60/168/47 59/169/47
f 57/170/48 54/171/48 56/172/48
f 63/173/49 66/174/49 64/175/49
f 54/176/50 58/177/50 55/178/50
f 65/179/51 59/180/51 61/181/51
f 66/182/52 61/183/52 62/184/52
f 60/185/53 66/186/53 62/187/53
f 46/188/54 55/189/54 49/190/54
f 50/191/55 52/192/55 48/193/55
f 47/194/56 49/195/56 50/196/56
f 51/197/57 47/198/57 45/199/57
f 48/200/58 51/201/58 45/202/58
f 56/203/59 58/204/59 57/205/59
f 45/206/47 50/207/47 48/208/47
f 52/158/44 53/209/44 56/159/44
f 63/167/47 64/210/47 60/168/47
f 63/173/49 65/211/49 66/174/49
f 54/176/50 57/212/50 58/177/50
f 65/179/51 63/213/51 59/180/51
f 66/182/52 65/214/52 61/183/52
f 60/185/53 64/215/53 66/186/53
f 46/188/54 54/216/54 55/189/54
f 50/191/60 49/217/60 52/192/60
f 47/194/56 46/218/56 49/195/56
f 51/197/61 46/219/61 47/198/61
f 48/200/58 52/220/58 51/201/58
f 56/203/59 53/221/59 58/204/59
f 45/206/47 47/222/47 50/207/47
o HeavyTank.003
v 0.321564 -1.000000 -0.781477
v 0.512826 -0.631571 1.000000
v 0.321564 -1.000000 0.781477
v -0.321564 -1.000000 -0.781477
v -0.512826 -0.631571 1.000000
v -0.321564 -1.000000 0.781477
v 0.433025 -0.631571 -1.000000
v -0.433025 -0.631571 -1.000000
v -0.291721 -0.035884 -0.699250
v 0.315397 -0.363392 0.000000
v -0.315397 -0.363392 0.000000
v 0.291721 -0.035884 -0.699250
v 0.262396 -0.038052 -0.326688
v -0.262396 -0.038052 -0.326688
v 0.059033 -0.234233 -0.127086
v -0.059033 -0.234233 -0.127086
v 0.059310 -0.121814 -0.239972
v -0.059310 -0.121814 -0.239972
v 0.059033 -0.234233 0.997479
v -0.059033 -0.234233 0.997479
v 0.059310 -0.121814 0.999419
v -0.059310 -0.121814 0.999419
vn 0.8617 0.5062 -0.0344
vn -0.8617 0.5062 -0.0344
vn 0.9777 0.2011 0.0611
vn -0.0000 0.4507 -0.8927
vn -0.9777 0.2011 0.0611
vn -0.9687 0.2358 0.0776
vn -0.0000 -1.0000 -0.0000
vn 0.9687 0.2358 0.0776
vn -0.0000 -0.0173 0.9999
vn -0.0000 0.7086 0.7056
vn 1.0000 -0.0025 -0.0000
vn -0.0000 1.0000 -0.0000
vn -1.0000 -0.0025 -0.0000
vn -0.0000 0.9659 0.2590
vn -0.9572 -0.2896 -0.0000
vn -0.0000 -0.5101 0.8601
vn 0.9572 -0.2896 -0.0000
vn -0.0000 -0.5101 -0.8601
vn -0.0000 1.0000 0.0058
vn -0.8955 -0.4437 -0.0357
vn 0.8955 -0.4437 -0.0357
vt 0.250000 0.375000
vt 0.282804 0.498011
vt 0.250000 0.625000
vt 0.250000 0.601914
vt 0.216334 0.599385
vt 0.283666 0.398086
vt 0.813387 0.830942
vt 0.752222 0.975934
vt 0.686613 0.774066
vt 0.661791 0.192528
vt 0.810006 0.057226
vt 0.838209 0.193282
vt 0.246296 0.975649
vt 0.186372 0.830140
vt 0.313628 0.774351
vt 0.782047 0.572755
vt 0.717953 0.503260
vt 0.722123 0.427245
vt 0.887025 0.239541
vt 0.862975 0.010459
vt 0.887025 0.010459
vt 0.782343 0.503552
vt 0.717657 0.572496
vt 0.778823 0.427504
vt 0.762025 0.488548
vt 0.737918 0.511452
vt 0.737975 0.488548
vt 0.439248 0.453338
vt 0.321147 0.546754
vt 0.310752 0.452789
vt 0.261450 0.813217
vt 0.238550 0.709779
vt 0.261450 0.686783
vt 0.262082 0.250000
vt 0.237918 0.123764
vt 0.262082 0.123764
vt 0.761450 0.761498
vt 0.738550 0.876236
vt 0.738550 0.738502
vt 0.937500 0.062500
vt 0.562500 0.187500
vt 0.562500 0.062500
vt 0.792035 0.943800
vt 0.714654 0.762047
vt 0.792716 0.807172
vt 1.362444 0.544164
vt 1.192101 0.630696
vt 1.231436 0.543604
vt 0.289222 0.761958
vt 0.207815 0.943166
vt 0.210778 0.806414
vt 0.684123 0.543398
vt 0.838209 0.456796
vt 0.815131 0.543958
vt 0.309425 0.163188
vt 0.196873 0.086812
vt 0.303776 0.087269
vt 0.816185 0.091090
vt 0.683815 0.249720
vt 0.685176 0.090530
vt 0.691156 0.056718
vt 0.862975 0.239541
vt 0.762082 0.511452
vt 0.428050 0.547211
vt 0.238550 0.812822
vt 0.237918 0.250000
vt 0.761450 0.875841
vt 0.937500 0.187500
vt 0.707284 0.987953
vt 1.401031 0.631589
vt 0.292185 0.988042
vt 0.661791 0.456042
vt 0.190575 0.162680
vt 0.814824 0.250280
s 0
usemtl Material
f 73/223/62 76/224/62 68/225/62
f 71/226/63 77/227/63 74/228/63
f 78/229/64 76/230/64 73/231/64
f 74/232/65 78/233/65 73/234/65
f 77/235/66 75/236/66 74/237/66
f 77/238/67 80/239/67 75/240/67
f 85/241/68 82/242/68 81/243/68
f 79/244/69 76/245/69 78/246/69
f 85/247/70 88/248/70 86/249/70
f 76/250/71 80/251/71 77/252/71
f 87/253/72 81/254/72 83/255/72
f 88/256/73 83/257/73 84/258/73
f 82/259/74 88/260/74 84/261/74
f 68/262/75 77/263/75 71/264/75
f 72/265/76 74/266/76 70/267/76
f 69/268/77 71/269/77 72/270/77
f 73/271/78 69/272/78 67/273/78
f 70/274/79 73/275/79 67/276/79
f 78/277/80 80/278/80 79/279/80
f 67/280/68 72/281/68 70/282/68
f 74/232/65 75/283/65 78/233/65
f 85/241/68 86/284/68 82/242/68
f 85/247/70 87/285/70 88/248/70
f 76/250/71 79/286/71 80/251/71
f 87/253/72 85/287/72 81/254/72
f 88/256/73 87/288/73 83/257/73
f 82/259/74 86/289/74 88/260/74
f 68/262/75 76/290/75 77/263/75
f 72/265/81 71/291/81 74/266/81
f 69/268/77 68/292/77 71/269/77
f 73/271/82 68/293/82 69/272/82
f 70/274/79 74/294/79 73/275/79
f 78/277/80 75/295/80 80/278/80
f 67/280/68 69/296/68 72/281/68
o HeavyTank.004
v 0.321564 -1.000000 -0.781477
v 0.512826 -0.631571 1.000000
v 0.321564 -1.000000 0.781477
v -0.321564 -1.000000 -0.781477
v -0.512826 -0.631571 1.000000
v -0.321564 -1.000000 0.781477
v 0.433025 -0.631571 -1.000000
v -0.433025 -0.631571 -1.000000
v -0.291721 -0.035884 -0.699250
v 0.315397 -0.363392 0.000000
v -0.315397 -0.363392 0.000000
v 0.291721 -0.035884 -0.699250
v 0.262396 -0.038052 -0.326688
v -0.262396 -0.038052 -0.326688
v 0.059033 -0.234233 -0.127086
v -0.059033 -0.234233 -0.127086
v 0.059310 -0.121814 -0.239972
v -0.059310 -0.121814 -0.239972
v 0.059033 -0.234233 0.997479
v -0.059033 -0.234233 0.997479
v 0.059310 -0.121814 0.999419
v -0.059310 -0.121814 0.999419
vn 0.8617 0.5062 -0.0344
vn -0.8617 0.5062 -0.0344
vn 0.9777 0.2011 0.0611
vn -0.0000 0.4507 -0.8927
vn -0.9777 0.2011 0.0611
vn -0.9687 0.2358 0.0776
vn -0.0000 -1.0000 -0.0000
vn 0.9687 0.2358 0.0776
vn -0.0000 -0.0173 0.9999
vn -0.0000 0.7086 0.7056
vn 1.0000 -0.0025 -0.0000
vn -0.0000 1.0000 -0.0000
vn -1.0000 -0.0025 -0.0000
vn -0.0000 0.9659 0.2590
vn -0.9572 -0.2896 -0.0000
vn -0.0000 -0.5101 0.8601
vn 0.9572 -0.2896 -0.0000
vn -0.0000 -0.5101 -0.8601
vn -0.0000 1.0000 0.0058
vn -0.8955 -0.4437 -0.0357
vn 0.8955 -0.4437 -0.0357
vt 0.250000 0.375000
vt 0.282804 0.498011
vt 0.250000 0.625000
vt 0.250000 0.601914
vt 0.216334 0.599385
vt 0.283666 0.398086
vt 0.813387 0.830942
vt 0.752222 0.975934
vt 0.686613 0.774066
vt 0.661791 0.192528
vt 0.810006 0.057226
vt 0.838209 0.193282
vt 0.246296 0.975649
vt 0.186372 0.830140
vt 0.313628 0.774351
vt 0.782047 0.572755
vt 0.717953 0.503260
vt 0.722123 0.427245
vt 0.887025 0.239541
vt 0.862975 0.010459
vt 0.887025 0.010459
vt 0.782343 0.503552
vt 0.717657 0.572496
vt 0.778823 0.427504
vt 0.762025 0.488548
vt 0.737918 0.511452
vt 0.737975 0.488548
vt 0.439248 0.453338
vt 0.321147 0.546754
vt 0.310752 0.452789
vt 0.261450 0.813217
vt 0.238550 0.709779
vt 0.261450 0.686783
vt 0.262082 0.250000
vt 0.237918 0.123764
vt 0.262082 0.123764
vt 0.761450 0.761498
vt 0.738550 0.876236
vt 0.738550 0.738502
vt 0.937500 0.062500
vt 0.562500 0.187500
vt 0.562500 0.062500
vt 0.792035 0.943800
vt 0.714654 0.762047
vt 0.792716 0.807172
vt 1.362444 0.544164
vt 1.192101 0.630696
vt 1.231436 0.543604
vt 0.289222 0.761958
vt 0.207815 0.943166
vt 0.210778 0.806414
vt 0.684123 0.543398
vt 0.838209 0.456796
vt 0.815131 0.543958
vt 0.309425 0.163188
vt 0.196873 0.086812
vt 0.303776 0.087269
vt 0.816185 0.091090
vt 0.683815 0.249720
vt 0.685176 0.090530
vt 0.691156 0.056718
vt 0.862975 0.239541
vt 0.762082 0.511452
vt 0.428050 0.547211
vt 0.238550 0.812822
vt 0.237918 0.250000
vt 0.761450 0.875841
vt 0.937500 0.187500
vt 0.707284 0.987953
vt 1.401031 0.631589
vt 0.292185 0.988042
vt 0.661791 0.456042
vt 0.190575 0.162680
vt 0.814824 0.250280
s 0
usemtl Material
f 95/297/83 98/298/83 90/299/83
f 93/300/84 99/301/84 96/302/84
f 100/303/85 98/304/85 95/305/85
f 96/306/86 100/307/86 95/308/86
f 99/309/87 97/310/87 96/311/87
f 99/312/88 102/313/88 97/314/88
f 107/315/89 104/316/89 103/317/89
f 101/318/90 98/319/90 100/320/90
f 107/321/91 110/322/91 108/323/91
f 98/324/92 102/325/92 99/326/92
f 109/327/93 103/328/93 105/329/93
f 110/330/94 105/331/94 106/332/94
f 104/333/95 110/334/95 106/335/95
f 90/336/96 99/337/96 93/338/96
f 94/339/97 96/340/97 92/341/97
f 91/342/98 93/343/98 94/344/98
f 95/345/99 91/346/99 89/347/99
f 92/348/100 95/349/100 89/350/100
f 100/351/101 102/352/101 101/353/101
f 89/354/89 94/355/89 92/356/89
f 96/306/86 97/357/86 100/307/86
f 107/315/89 108/358/89 104/316/89
f 107/321/91 109/359/91 110/322/91
f 98/324/92 101/360/92 102/325/92
f 109/327/93 107/361/93 103/328/93
f 110/330/94 109/362/94 105/331/94
f 104/333/95 108/363/95 110/334/95
f 90/336/96 98/364/96 99/337/96
f 94/339/102 93/365/102 96/340/102
f 91/342/98 90/366/98 93/343/98
f 95/345/103 90/367/103 91/346/103
f 92/348/100 96/368/100 95/349/100
f 100/351/101 97/369/101 102/352/101
f 89/354/89 91/370/89 94/355/89
o HeavyTank.005
v 0.321564 -1.000000 -0.781477
v 0.512826 -0.631571 1.000000
v 0.321564 -1.000000 0.781477
v -0.321564 -1.000000 -0.781477
v -0.512826 -0.631571 1.000000
v -0.321564 -1.000000 0.781477
v 0.433025 -0.631571 -1.000000
v -0.433025 -0.631571 -1.000000
v -0.291721 -0.035884 -0.699250
v 0.315397 -0.363392 0.000000
v -0.315397 -0.363392 0.000000
v 0.291721 -0.035884 -0.699250
v 0.262396 -0.038052 -0.326688
v -0.262396 -0.038052 -0.326688
v 0.059033 -0.234233 -0.127086
v -0.059033 -0.234233 -0.127086
v 0.059310 -0.121814 -0.239972
v -0.059310 -0.121814 -0.239972
v 0.059033 -0.234233 0.997479
v -0.059033 -0.234233 0.997479
v 0.059310 -0.121814 0.999419
v -0.059310 -0.121814 0.999419
vn 0.8617 0.5062 -0.0344
vn -0.8617 0.5062 -0.0344
vn 0.9777 0.2011 0.0611
vn -0.0000 0.4507 -0.8927
vn -0.9777 0.2011 0.0611
vn -0.9687 0.2358 0.0776
vn -0.0000 -1.0000 -0.0000
vn 0.9687 0.2358 0.0776
vn -0.0000 -0.0173 0.9999
vn -0.0000 0.7086 0.7056
vn 1.0000 -0.0025 -0.0000
vn -0.0000 1.0000 -0.0000
vn -1.0000 -0.0025 -0.0000
vn -0.0000 0.9659 0.2590
vn -0.9572 -0.2896 -0.0000
vn -0.0000 -0.5101 0.8601
vn 0.9572 -0.2896 -0.0000
vn -0.0000 -0.5101 -0.8601
vn -0.0000 1.0000 0.0058
vn -0.8955 -0.4437 -0.0357
vn 0.8955 -0.4437 -0.0357
vt 0.250000 0.375000
vt 0.282804 0.498011
vt 0.250000 0.625000
vt 0.250000 0.601914
vt 0.216334 0.599385
vt 0.283666 0.398086
vt 0.813387 0.830942
vt 0.752222 0.975934
vt 0.686613 0.774066
vt 0.661791 0.192528
vt 0.810006 0.057226
vt 0.838209 0.193282
vt 0.246296 0.975649
vt 0.186372 0.830140
vt 0.313628 0.774351
vt 0.782047 0.572755
vt 0.717953 0.503260
vt 0.722123 0.427245
vt 0.887025 0.239541
vt 0.862975 0.010459
vt 0.887025 0.010459
vt 0.782343 0.503552
vt 0.717657 0.572496
vt 0.778823 0.427504
vt 0.762025 0.488548
vt 0.737918 0.511452
vt 0.737975 0.488548
vt 0.439248 0.453338
vt 0.321147 0.546754
vt 0.310752 0.452789
vt 0.261450 0.813217
vt 0.238550 0.709779
vt 0.261450 0.686783
vt 0.262082 0.250000
vt 0.237918 0.123764
vt 0.262082 0.123764
vt 0.761450 0.761498
vt 0.738550 0.876236
vt 0.738550 0.738502
vt 0.937500 0.062500
vt 0.562500 0.187500
vt 0.562500 0.062500
vt 0.792035 0.943800
vt 0.714654 0.762047
vt 0.792716 0.807172
vt 1.362444 0.544164
vt 1.192101 0.630696
vt 1.231436 0.543604
vt 0.289222 0.761958
vt 0.207815 0.943166
vt 0.210778 0.806414
vt 0.684123 0.543398
vt 0.838209 0.456796
vt 0.815131 0.543958
vt 0.309425 0.163188
vt 0.196873 0.086812
vt 0.303776 0.087269
vt 0.816185 0.091090
vt 0.683815 0.249720
vt 0.685176 0.090530
vt 0.691156 0.056718
vt 0.862975 0.239541
vt 0.762082 0.511452
vt 0.428050 0.547211
vt 0.238550 0.812822
vt 0.237918 0.250000
vt 0.761450 0.875841
vt 0.937500 0.187500
vt 0.707284 0.987953
vt 1.401031 0.631589
vt 0.292185 0.988042
vt 0.661791 0.456042
vt 0.190575 0.162680
vt 0.814824 0.250280
s 0
usemtl Material
f 117/371/104 120/372/104 112/373/104
f 115/374/105 121/375/105 118/376/105
f 122/377/106 120/378/106 117/379/106
f 118/380/107 122/381/107 117/382/107
f 121/383/108 119/384/108 118/385/108
f 121/386/109 124/387/109 119/388/109
f 129/389/110 126/390/110 125/391/110
f 123/392/111 120/393/111 122/394/111
f 129/395/112 132/396/112 130/397/112
f 120/398/113 124/399/113 121/400/113
f 131/401/114 125/402/114 127/403/114
f 132/404/115 127/405/115 128/406/115
f 126/407/116 132/408/116 128/409/116
f 112/410/117 121/411/117 115/412/117
f 116/413/118 118/414/118 114/415/118
f 113/416/119 115/417/119 116/418/119
f 117/419/120 113/420/120 111/421/120
f 114/422/121 117/423/121 111/424/121
f 122/425/122 124/426/122 123/427/122
f 111/428/110 116/429/110 114/430/110
f 118/380/107 119/431/107 122/381/107
f 129/389/110 130/432/110 126/390/110
f 129/395/112 131/433/112 132/396/112
f 120/398/113 123/434/113 124/399/113
f 131/401/114 129/435/114 125/402/114
f 132/404/115 131/436/115 127/405/115
f 126/407/116 130/437/116 132/408/116
f 112/410/117 120/438/117 121/411/117
f 116/413/123 115/439/123 118/414/123
f 113/416/119 112/440/119 115/417/119
f 117/419/124 112/441/124 113/420/124
f 114/422/121 118/442/121 117/423/121
f 122/425/122 119/443/122 124/426/122
f 111/428/110 113/444/110 116/429/110
