# Blender 4.1.1
# www.blender.org
mtllib thing1+z-y.mtl
o Cube
v 0.250000 0.250000 0.250000
v 0.250000 -0.250000 -0.250000
v -0.250000 -0.250000 0.250000
v -0.250000 0.250000 0.250000
v -0.250000 -0.250000 -0.250000
v -0.250000 0.250000 -0.250000
v 0.250000 -0.250000 0.250000
v 0.250000 0.250000 -0.250000
v 0.050000 -0.050000 0.800000
v 0.050000 0.050000 0.800000
v 0.150000 -0.100000 0.300000
v 0.150000 0.250000 0.300000
v -0.050000 -0.050000 0.800000
v -0.050000 0.050000 0.800000
v -0.250000 -0.100000 0.300000
v -0.250000 0.250000 0.300000
v 0.600000 -0.050000 0.050000
v 0.600000 0.050000 0.050000
v 0.750000 -0.050000 -0.250000
v 0.250000 -0.050000 0.250000
v 0.250000 0.050000 -0.250000
v 0.750000 0.050000 -0.250000
v 0.250000 0.050000 0.250000
v 0.250000 -0.050000 -0.250000
v 0.050000 -0.250000 0.150000
v 0.200000 -0.250000 -0.100000
v 0.000000 -0.250000 0.150000
v 0.100000 -0.300000 0.150000
v 0.200000 -0.400000 -0.100000
v 0.000000 -0.300000 0.150000
v -0.050000 -0.400000 -0.100000
v -0.050000 -0.250000 -0.100000
vn -0.0000 -1.0000 -0.0000
vn -0.0000 -0.0000 -1.0000
vn -1.0000 -0.0000 -0.0000
vn -0.0000 1.0000 -0.0000
vn 1.0000 -0.0000 -0.0000
vn -0.0000 -0.0000 1.0000
vn -0.0000 -0.9950 0.0995
vn -0.9285 -0.0000 0.3714
vn -0.0000 0.9285 0.3714
vn 0.9806 -0.0000 0.1961
vn 0.8944 -0.0000 0.4472
vn 0.4961 -0.0000 0.8682
vn -0.9806 -0.0000 0.1961
vn -0.0000 -0.9285 0.3714
vt 0.875000 0.500000
vt 0.625000 0.750000
vt 0.625000 0.500000
vt 0.375000 1.000000
vt 0.375000 0.750000
vt 0.625000 0.000000
vt 0.375000 0.250000
vt 0.375000 0.000000
vt 0.375000 0.500000
vt 0.125000 0.750000
vt 0.125000 0.500000
vt 0.625000 0.250000
vt 0.875000 0.750000
vt 0.625000 1.000000
s 0
usemtl Material
f 3/1/1 2/2/1 7/3/1
f 2/2/2 6/4/2 8/5/2
f 5/6/3 4/7/3 6/8/3
f 1/9/4 6/10/4 4/11/4
f 7/3/5 8/5/5 1/9/5
f 3/12/6 1/9/6 4/7/6
f 13/1/7 11/2/7 9/3/7
f 11/2/2 16/4/2 12/5/2
f 15/6/8 14/7/8 16/8/8
f 14/11/9 12/5/9 16/10/9
f 10/9/10 11/2/10 12/5/10
f 13/12/6 10/9/6 14/7/6
f 17/3/1 24/13/1 19/2/1
f 19/2/2 21/4/2 22/5/2
f 24/6/3 23/7/3 21/8/3
f 18/9/4 21/10/4 23/11/4
f 17/3/11 22/5/11 18/9/11
f 20/12/12 18/9/12 23/7/12
f 29/2/2 32/4/2 26/5/2
f 32/8/13 30/12/13 27/7/13
f 25/9/4 32/10/4 27/11/4
f 30/12/6 25/9/6 27/7/6
f 28/3/14 31/13/14 29/2/14
f 3/1/1 5/13/1 2/2/1
f 2/2/2 5/14/2 6/4/2
f 5/6/3 3/12/3 4/7/3
f 1/9/4 8/5/4 6/10/4
f 7/3/5 2/2/5 8/5/5
f 3/12/6 7/3/6 1/9/6
f 13/1/7 15/13/7 11/2/7
f 11/2/2 15/14/2 16/4/2
f 15/6/8 13/12/8 14/7/8
f 14/11/9 10/9/9 12/5/9
f 10/9/10 9/3/10 11/2/10
f 13/12/6 9/3/6 10/9/6
f 17/3/1 20/1/1 24/13/1
f 19/2/2 24/14/2 21/4/2
f 24/6/3 20/12/3 23/7/3
f 18/9/4 22/5/4 21/10/4
f 17/3/11 19/2/11 22/5/11
f 20/12/12 17/3/12 18/9/12
f 29/2/2 31/14/2 32/4/2
f 32/8/13 31/6/13 30/12/13
f 25/9/4 26/5/4 32/10/4
f 30/12/6 28/3/6 25/9/6
f 28/3/14 30/1/14 31/13/14
