# Blender 4.1.1
# www.blender.org
mtllib wolf1.mtl
o Cube
v 1.000000 1.000000 1.000000
v 1.000000 1.000000 -1.000000
v 1.000000 -1.000000 1.000000
v 1.000000 -1.000000 -1.000000
v -1.000000 1.000000 1.000000
v -1.000000 1.000000 -1.000000
v -1.000000 -1.000000 1.000000
v -1.000000 -1.000000 -1.000000
vn -0.0000 -1.0000 -0.0000
vn -1.0000 -0.0000 -0.0000
vn 1.0000 -0.0000 -0.0000
vn -0.0000 1.0000 -0.0000
vt 1.000000 1.000000
vt 0.000000 0.000000
vt 1.000000 0.000000
vt 1.000000 0.000000
vt 0.000000 1.000000
vt 0.000000 1.000000
s 0
usemtl Material
f 3/1/1 8/2/1 4/3/1
f 7/1/2 6/2/2 8/4/2
f 1/1/3 4/2/3 2/3/3
f 5/1/4 2/2/4 6/3/4
f 3/1/1 7/5/1 8/2/1
f 7/1/2 5/6/2 6/2/2
f 1/1/3 3/6/3 4/2/3
f 5/1/4 1/6/4 2/2/4
