# Blender 4.1.1
# www.blender.org
mtllib wolf.mtl
o Cube
v 1.000000 1.000000 -1.000000
v 1.000000 -1.000000 -1.000000
v 1.000000 1.000000 1.000000
v 1.000000 -1.000000 1.000000
v -1.000000 1.000000 -1.000000
v -1.000000 -1.000000 -1.000000
v -1.000000 1.000000 1.000000
v -1.000000 -1.000000 1.000000
vn -1.0000 -0.0000 -0.0000
vn 1.0000 -0.0000 -0.0000
vn -0.0000 -0.0000 -1.0000
vn -0.0000 -0.0000 1.0000
vt 0.000000 1.000000
vt 1.000000 0.000000
vt 1.000000 1.000000
vt 1.000000 0.000000
vt 1.000000 1.000000
vt 0.000000 0.000000
s 0
usemtl Material
f 5/1/1 8/2/1 7/3/1
f 3/1/2 2/4/2 1/5/2
f 1/1/3 6/4/3 5/5/3
f 7/1/4 4/2/4 3/3/4
f 5/1/1 6/6/1 8/2/1
f 3/1/2 4/6/2 2/4/2
f 1/1/3 2/6/3 6/4/3
f 7/1/4 8/6/4 4/2/4
