# Blender 4.1.1
# www.blender.org
mtllib pyr1-z+x.mtl
o Cube
v 1.000000 -0.375000 -0.500000
v -1.000000 -0.750000 -1.000000
v 1.000000 -0.500000 0.500000
v -1.000000 -1.000000 1.000000
v 1.000000 0.375000 -0.500000
v -1.000000 0.750000 -1.000000
v 1.000000 0.500000 0.500000
v -1.000000 1.000000 1.000000
vn 1.0000 -0.0000 -0.0000
vn 0.2425 -0.0000 0.9701
vn 0.2121 0.9697 -0.1212
vn -1.0000 -0.0000 -0.0000
vn 0.2121 -0.9697 -0.1212
vn 0.2425 -0.0000 -0.9701
vt 0.842624 0.500000
vt 0.625000 0.750000
vt 0.657376 0.500000
vt 0.625000 0.812500
vt 0.375000 1.000000
vt 0.375000 0.750000
vt 0.625000 0.062500
vt 0.375000 0.250000
vt 0.375000 0.000000
vt 0.347697 0.500000
vt 0.125000 0.750000
vt 0.152303 0.500000
vt 0.375000 0.500000
vt 0.625000 0.687500
vt 0.625000 0.312500
vt 0.875000 0.750000
vt 0.625000 0.937500
vt 0.625000 0.187500
vt 0.625000 0.562500
vt 0.625000 0.437500
s 0
usemtl Material
f 5/1/1 3/2/1 1/3/1
f 3/4/2 8/5/2 4/6/2
f 7/7/3 6/8/3 8/9/3
f 2/10/4 8/11/4 6/12/4
f 2/13/5 3/14/5 4/6/5
f 5/15/6 2/13/6 6/8/6
f 5/1/1 7/16/1 3/2/1
f 3/4/2 7/17/2 8/5/2
f 7/7/3 5/18/3 6/8/3
f 2/10/4 4/6/4 8/11/4
f 2/13/5 1/19/5 3/14/5
f 5/15/6 1/20/6 2/13/6
