# Blender 4.1.1
# www.blender.org
mtllib thing+y-z.mtl
o Cube
v -0.500000 0.500000 -0.500000
v -0.500000 0.500000 0.500000
v -0.200000 -0.500000 -0.300000
v -0.200000 -0.500000 0.200000
v 0.500000 0.500000 -0.500000
v 0.500000 0.500000 0.500000
v 0.300000 -0.500000 -0.300000
v 0.300000 -0.500000 0.200000
v -0.200000 -0.100000 0.100000
v -0.200000 -0.100000 -0.100000
v -0.200000 0.100000 0.100000
v -0.200000 0.100000 -0.100000
v -0.500000 -0.100000 0.100000
v -0.500000 -0.100000 -0.100000
v -0.500000 0.100000 0.100000
v -0.500000 0.100000 -0.100000
v 0.000000 0.300000 -0.200000
v 0.000000 0.300000 -0.500000
v -0.200000 -0.100000 -0.200000
v -0.200000 -0.100000 -0.500000
v 0.200000 -0.100000 -0.200000
v 0.200000 -0.100000 -0.500000
vn -0.0000 -0.1961 -0.9806
vn -0.0000 -1.0000 -0.0000
vn 0.9806 -0.1961 -0.0000
vn -0.0000 -0.2873 0.9578
vn -0.9578 -0.2873 -0.0000
vn -0.0000 1.0000 -0.0000
vn -1.0000 -0.0000 -0.0000
vn -0.0000 -0.0000 1.0000
vn -0.0000 -0.0000 -1.0000
vn -0.8944 0.4472 -0.0000
vn 0.8944 0.4472 -0.0000
vt 0.875000 0.500000
vt 0.687500 0.750000
vt 0.625000 0.500000
vt 0.625000 0.750000
vt 0.375000 1.000000
vt 0.375000 0.750000
vt 0.437500 0.000000
vt 0.625000 0.250000
vt 0.375000 0.250000
vt 0.125000 0.500000
vt 0.312500 0.750000
vt 0.187500 0.750000
vt 0.437500 0.750000
vt 0.375000 0.500000
vt 0.625000 1.000000
vt 0.125000 0.750000
vt 0.593750 0.750000
vt 0.401042 0.515625
vt 0.593750 0.515625
vt 0.666667 1.000000
vt 0.333333 0.500000
vt 0.666667 0.500000
vt 0.625000 0.718750
vt 0.750000 0.500000
vt 0.875000 0.718750
vt 0.609375 0.171875
vt 0.390625 0.046875
vt 0.609375 0.046875
vt 0.812500 0.750000
vt 0.562500 0.000000
vt 0.562500 0.750000
vt 0.875000 0.750000
vt 0.401042 0.750000
vt 0.333333 1.000000
vt 0.390625 0.171875
s 0
usemtl Material
f 5/1/1 3/2/1 1/3/1
f 3/4/2 8/5/2 4/6/2
f 8/7/3 5/8/3 6/9/3
f 6/10/4 4/11/4 8/12/4
f 1/3/5 4/13/5 2/14/5
f 5/8/6 2/14/6 6/9/6
f 13/6/2 10/15/2 9/5/2
f 12/8/6 15/14/6 11/9/6
f 16/3/7 13/6/7 15/14/7
f 15/14/8 9/16/8 11/10/8
f 12/1/9 14/4/9 16/3/9
f 18/17/10 19/18/10 17/19/10
f 20/20/2 21/21/2 19/22/2
f 20/23/9 18/24/9 22/25/9
f 22/26/11 17/27/11 21/28/11
f 5/1/1 7/29/1 3/2/1
f 3/4/2 7/15/2 8/5/2
f 8/7/3 7/30/3 5/8/3
f 6/10/4 2/14/4 4/11/4
f 1/3/5 3/31/5 4/13/5
f 5/8/6 1/3/6 2/14/6
f 13/6/2 14/4/2 10/15/2
f 12/8/6 16/3/6 15/14/6
f 16/3/7 14/4/7 13/6/7
f 15/14/8 13/6/8 9/16/8
f 12/1/9 10/32/9 14/4/9
f 18/17/10 20/33/10 19/18/10
f 20/20/2 22/34/2 21/21/2
f 22/26/11 18/35/11 17/27/11
