# Blender 4.1.1
# www.blender.org
mtllib cubeaxes2-y-z.mtl
o Cube
v 0.440000 -0.500000 -0.260000
v 0.250000 -0.500000 0.500000
v 0.440000 0.500000 -0.260000
v 0.250000 0.500000 0.500000
v -0.500000 -0.500000 -0.500000
v -0.250000 -0.500000 0.500000
v -0.500000 0.500000 -0.500000
v -0.250000 0.500000 0.500000
v 0.000000 -1.000000 0.000000
vn 0.2474 -0.0000 -0.9689
vn -0.0000 1.0000 -0.0000
vn -0.9701 -0.0000 0.2425
vn -0.0000 -0.0000 1.0000
vn 0.9701 -0.0000 0.2425
vn 0.2006 -0.5851 -0.7857
vn -0.7845 -0.5883 0.1961
vn -0.0000 -0.7071 0.7071
vn 0.7845 -0.5883 0.1961
vt 1.000000 1.000000
vt 0.687500 0.687500
vt 1.000000 0.687500
vt 0.656250 0.000000
vt 0.343750 0.312500
vt 0.343750 0.000000
vt 0.312500 0.687500
vt 0.000000 1.000000
vt 0.000000 0.687500
vt 0.000000 0.000000
vt 0.312500 0.312500
vt 0.000000 0.312500
vt 1.000000 0.000000
vt 0.687500 0.312500
vt 0.687500 0.000000
vt 0.656250 0.687500
vt 0.656250 1.000000
vt 0.531250 0.843750
vt 0.343750 0.687500
vt 0.343750 1.000000
vt 0.687500 1.000000
vt 0.656250 0.312500
vt 0.312500 1.000000
vt 0.312500 0.000000
vt 1.000000 0.312500
s 0
usemtl Material
f 5/1/1 3/2/1 1/3/1
f 3/4/2 8/5/2 4/6/2
f 7/7/3 6/8/3 8/9/3
f 2/10/4 8/11/4 6/12/4
f 1/13/5 4/14/5 2/15/5
f 5/16/6 1/17/6 9/18/6
f 5/16/7 9/18/7 6/19/7
f 6/19/8 9/18/8 2/20/8
f 2/20/9 9/18/9 1/17/9
f 5/1/1 7/21/1 3/2/1
f 3/4/2 7/22/2 8/5/2
f 7/7/3 5/23/3 6/8/3
f 2/10/4 4/24/4 8/11/4
f 1/13/5 3/25/5 4/14/5
